<svg width="160" height="45" viewBox="0 0 160 45" fill="none" xmlns="http://www.w3.org/2000/svg">
<path d="M0 39.3262L9.89525 44.3787V33.8387L0 28.7861V39.3262Z" fill="black"/>
<path d="M0 12.8938L25.7876 0V10.495L0 23.3888V12.8938Z" fill="#009689"/>
<path d="M0 28.7863L18.2568 20.2404V30.7353L0 39.2812V28.7863Z" fill="#009689"/>
<path d="M37.0684 44.104V14.7334H55.8839V19.1935H42.3889V27.1671H54.5932V31.6272H42.3889V44.104H37.0684Z" fill="black"/>
<path d="M58.4825 44.104V22.076H63.674V44.104H58.4825ZM61.0926 18.9497C60.2704 18.9497 59.5629 18.6772 58.9701 18.1322C58.3774 17.5777 58.081 16.9132 58.081 16.1388C58.081 15.3548 58.3774 14.6903 58.9701 14.1454C59.5629 13.5909 60.2704 13.3136 61.0926 13.3136C61.9244 13.3136 62.6319 13.5909 63.2151 14.1454C63.8079 14.6903 64.1043 15.3548 64.1043 16.1388C64.1043 16.9132 63.8079 17.5777 63.2151 18.1322C62.6319 18.6772 61.9244 18.9497 61.0926 18.9497Z" fill="black"/>
<path d="M72.1848 31.197V44.104H66.9933V22.076H71.9553V25.8191H72.2134C72.7202 24.5857 73.528 23.6058 74.6371 22.8791C75.7557 22.1525 77.1372 21.7892 78.7817 21.7892C80.3018 21.7892 81.626 22.1143 82.7542 22.7644C83.8919 23.4145 84.7715 24.3563 85.3929 25.5896C86.024 26.8229 86.3347 28.3192 86.3251 30.0784V44.104H81.1336V30.8815C81.1336 29.4091 80.7512 28.2571 79.9863 27.4253C79.231 26.5935 78.1841 26.1776 76.8456 26.1776C75.9374 26.1776 75.1295 26.3784 74.422 26.7799C73.724 27.1719 73.1743 27.7408 72.7728 28.4865C72.3808 29.2323 72.1848 30.1357 72.1848 31.197Z" fill="black"/>
<path d="M89.8129 44.104V14.7334H108.628V19.1935H95.1334V27.1671H107.338V31.6272H95.1334V44.104H89.8129Z" fill="#009689"/>
<path d="M116.419 14.7334V44.104H111.227V14.7334H116.419Z" fill="#009689"/>
<path d="M129.49 44.5342C127.281 44.5342 125.374 44.0753 123.768 43.1575C122.171 42.2301 120.942 40.9203 120.082 39.228C119.222 37.5262 118.791 35.5232 118.791 33.2191C118.791 30.9532 119.222 28.9646 120.082 27.2532C120.952 25.5322 122.166 24.1937 123.725 23.2377C125.283 22.272 127.114 21.7892 129.217 21.7892C130.575 21.7892 131.856 22.0091 133.061 22.4489C134.275 22.8791 135.346 23.5484 136.273 24.4567C137.21 25.3649 137.946 26.5218 138.482 27.9272C139.017 29.3231 139.285 30.9867 139.285 32.9179V34.5098H121.229V31.0106H134.308C134.299 30.0162 134.084 29.1319 133.663 28.3574C133.242 27.5735 132.654 26.9568 131.899 26.5074C131.153 26.0581 130.283 25.8334 129.289 25.8334C128.228 25.8334 127.296 26.0915 126.492 26.6078C125.689 27.1145 125.063 27.7838 124.614 28.6156C124.174 29.4378 123.949 30.3413 123.94 31.3261V34.3807C123.94 35.6619 124.174 36.7613 124.642 37.6792C125.111 38.5875 125.766 39.2854 126.607 39.773C127.449 40.251 128.433 40.49 129.561 40.49C130.317 40.49 131 40.3849 131.612 40.1745C132.224 39.9546 132.755 39.6344 133.204 39.2137C133.653 38.793 133.993 38.2719 134.222 37.6505L139.07 38.1955C138.764 39.4766 138.18 40.5952 137.32 41.5513C136.469 42.4978 135.379 43.234 134.05 43.7598C132.721 44.2761 131.201 44.5342 129.49 44.5342Z" fill="#009689"/>
<path d="M145.429 22.076L149.875 30.2074L154.392 22.076H159.885L153.245 33.09L160 44.104H154.536L149.875 36.1734L145.257 44.104H139.75L146.462 33.09L139.922 22.076H145.429Z" fill="#009689"/>
</svg>
